<?xml version="1.0" encoding="iso-8859-1"?>
<!-- Generator: Adobe Illustrator 17.0.0, SVG Export Plug-In . SVG Version: 6.00 Build 0)  -->
<!DOCTYPE svg PUBLIC "-//W3C//DTD SVG 1.1//EN" "http://www.w3.org/Graphics/SVG/1.1/DTD/svg11.dtd">
<svg version="1.1" id="Layer_1" xmlns="http://www.w3.org/2000/svg" xmlns:xlink="http://www.w3.org/1999/xlink" x="0px" y="0px"
	 width="50px" height="50px" viewBox="0 0 50 50" style="enable-background:new 0 0 50 50;" xml:space="preserve">
<path id="map" d="M48.726,12.808L37.274,5.639c-0.505-0.318-1.142-0.318-1.646,0L25,12.294L14.377,5.639
	c-0.505-0.318-1.142-0.318-1.646,0L1.279,12.808C0.799,13.112,0.5,13.656,0.5,14.244v28.68c0,0.603,0.314,1.161,0.813,1.46
	c0.505,0.294,1.122,0.289,1.617-0.024l10.623-6.654l10.623,6.654c0.51,0.318,1.142,0.318,1.651,0l10.623-6.654l10.623,6.654
	c0.255,0.162,0.539,0.24,0.823,0.24c0.274,0,0.544-0.074,0.794-0.216c0.5-0.299,0.808-0.858,0.808-1.46v-28.68
	C49.5,13.656,49.206,13.112,48.726,12.808z"/>
</svg>
