<?xml version="1.0" encoding="iso-8859-1"?>
<!-- Generator: Adobe Illustrator 17.0.0, SVG Export Plug-In . SVG Version: 6.00 Build 0)  -->
<!DOCTYPE svg PUBLIC "-//W3C//DTD SVG 1.1//EN" "http://www.w3.org/Graphics/SVG/1.1/DTD/svg11.dtd">
<svg version="1.1" id="Layer_1" xmlns="http://www.w3.org/2000/svg" xmlns:xlink="http://www.w3.org/1999/xlink" x="0px" y="0px"
	 width="50px" height="50px" viewBox="0 0 50 50" style="enable-background:new 0 0 50 50;" xml:space="preserve">
<g>
	<path d="M25.387,6.322C13.357,6.128,2.374,15.843,4.2,29.661c0.202,1.627,1.341,7.113,1.879,11.443
		c0.177,1.423,1.256,2.577,2.41,2.577c2.698,0,4.046,0,6.744,0c1.087,0,1.912-1.086,1.842-2.426
		c-0.276-5.297-0.435-4.495-0.711-9.792c-0.066-1.265-1.051-2.29-2.2-2.29c-1.957,0-2.936,0-4.893,0
		c0.016,0.171,0.024,0.256,0.04,0.426C8.295,19.42,16.256,11.826,25.275,11.971c8.703,0.14,16.399,7.382,15.397,17.283
		c0.003-0.033,0.005-0.049,0.008-0.082c-1.898,0-2.846,0-4.744,0c-1.232,0-2.288,1.099-2.359,2.455
		c-0.268,5.144-0.381,4.266-0.649,9.41c-0.076,1.46,0.822,2.643,2.006,2.643c2.642,0,3.963,0,6.606,0
		c1.134,0,2.194-1.133,2.368-2.531c0.433-3.487,1.565-9.245,1.895-11.896C47.585,15.827,37.015,6.51,25.387,6.322z"/>
</g>
</svg>
