<?xml version="1.0" encoding="utf-8"?>
<!-- Generator: Adobe Illustrator 17.0.0, SVG Export Plug-In . SVG Version: 6.00 Build 0)  -->
<!DOCTYPE svg PUBLIC "-//W3C//DTD SVG 1.1//EN" "http://www.w3.org/Graphics/SVG/1.1/DTD/svg11.dtd">
<svg version="1.1" id="bell__x26__framing" xmlns="http://www.w3.org/2000/svg" xmlns:xlink="http://www.w3.org/1999/xlink" x="0px"
	 y="0px" width="216.949px" height="220.87px" viewBox="0 0 216.949 220.87" style="enable-background:new 0 0 216.949 220.87;"
	 xml:space="preserve">
<style type="text/css">
	.st0{fill:#010101;}
	.st1{fill:url(#SVGID_1_);}
	.st2{fill:url(#SVGID_2_);}
	.st3{fill:url(#SVGID_3_);}
	.st4{fill:url(#SVGID_4_);}
	.st5{fill:url(#SVGID_5_);}
	.st6{fill:url(#SVGID_6_);}
	.st7{fill:url(#SVGID_7_);}
	.st8{fill:url(#SVGID_8_);}
	.st9{fill:url(#SVGID_9_);}
	.st10{fill:url(#SVGID_10_);}
	.st11{fill:url(#SVGID_11_);}
	.st12{fill:url(#SVGID_12_);}
	.st13{fill:url(#SVGID_13_);}
	.st14{fill:url(#SVGID_14_);}
	.st15{fill:url(#SVGID_15_);}
	.st16{fill:url(#SVGID_16_);}
	.st17{fill:url(#SVGID_17_);}
	.st18{fill:url(#SVGID_18_);}
</style>
<g id="shadow">
	<path class="st0" d="M65.88,169.84c1.333,0,2.486-0.466,3.425-1.383c0.94-0.914,1.417-2.045,1.417-3.358
		c0-1.304-0.474-2.439-1.409-3.371c-0.932-0.931-2.063-1.401-3.362-1.401c-1.318,0-2.46,0.468-3.396,1.391
		c-0.942,0.92-1.419,2.041-1.419,3.329c0,1.463,0.525,2.663,1.558,3.567C63.63,169.427,64.703,169.84,65.88,169.84z M63.69,162.806
		c0.616-0.619,1.349-0.921,2.242-0.921c0.898,0,1.631,0.302,2.238,0.92c0.602,0.61,0.907,1.376,0.907,2.28
		c0,0.891-0.309,1.658-0.919,2.277c-0.621,0.621-1.36,0.923-2.259,0.923c-0.816,0-1.548-0.305-2.176-0.909
		c-0.628-0.601-0.947-1.379-0.947-2.314C62.776,164.17,63.083,163.412,63.69,162.806z"/>
	<path class="st0" d="M154.241,195.125c0.028,0.014,0.062,0.021,0.093,0.02l3.967-0.092l1.833,0.093l3.353,0.149
		c1.978,0,4.836-0.257,7.216-1.478c0,0,0-0.001,0.001-0.001c3.608-1.868,5.678-5.221,5.678-9.202c0-4.282-2.465-7.689-6.594-9.115
		c-2.286-0.809-4.746-0.919-7.063-0.919c-2.464,0-5.006,0.074-8.002,0.234c-0.261,0.093-0.391,0.279-0.409,0.51
		c-0.019,0.251,0.099,0.495,0.293,0.609c0.069,0.024,0.771,0.124,0.771,0.124c1.134,0.15,1.333,0.56,1.333,2.744l-0.001,11.518
		c0,3.208-0.081,3.376-1.742,3.592c-0.001,0-0.732,0.097-0.732,0.097c-0.041,0.006-0.077,0.023-0.107,0.051
		c-0.167,0.156-0.195,0.42-0.165,0.614C153.997,194.892,154.098,195.057,154.241,195.125z M159.707,178.434
		c0-0.541,0-1.978,0.234-2.143c0.154-0.11,0.997-0.394,3.036-0.394c9.12,0,9.828,6.719,9.828,8.778c0,5.996-3.106,9.297-8.748,9.297
		c-2.056,0-3.144-0.338-3.754-1.168c-0.505-0.672-0.596-1.6-0.596-3.187V178.434z"/>
	<path class="st0" d="M179.298,195.127c0.027,0.013,0.06,0.019,0.091,0.019l4.321-0.092h2.857l6.403,0.083l0.454,0.009
		c0.075,0.001,0.143-0.039,0.177-0.107c0.429-0.851,1.228-3.199,1.451-4.259c0.008-0.041,0.003-0.084-0.015-0.123
		c-0.084-0.173-0.255-0.306-0.473-0.363c-0.221-0.06-0.447-0.033-0.603,0.074c-0.026,0.017-0.047,0.041-0.063,0.069
		c-0.758,1.431-1.616,2.554-2.184,2.862c0.008-0.005-0.37,0.244-0.37,0.244c-0.143,0.124-0.207,0.181-1.941,0.181
		c-2.798,0-3.387-0.331-3.718-0.641c-0.453-0.459-0.543-1.453-0.543-3.014c0,0,0-5.161,0-5.522c0.366,0,7.035,0,7.035,0
		c0.106,0,0.193-0.087,0.193-0.193v-1.118c0-0.107-0.087-0.193-0.193-0.193c0,0-6.669,0-7.035,0c0-0.363,0-6.032,0-6.032
		c0-1.024,0-1.024,0.761-1.024h2.294c1.572,0,2.452,0.052,3.041,0.18c1.481,0.355,1.776,1.244,2.221,2.59l0.054,0.163
		c0.186,0.234,0.431,0.249,0.562,0.242c0.196-0.008,0.452-0.078,0.576-0.246c0.029-0.039,0.042-0.086,0.037-0.134l-0.059-0.612
		c-0.164-1.702-0.303-3.037-0.463-3.464c-0.034-0.091-0.131-0.143-0.226-0.121c-0.359,0.084-2.338,0.084-4.251,0.084h-5.979
		l-3.754-0.089c-0.029-0.001-0.062,0.005-0.089,0.018c-0.191,0.089-0.274,0.341-0.286,0.549c-0.016,0.252,0.061,0.451,0.208,0.544
		c0.081,0.029,0.583,0.087,0.583,0.087c1.722,0.191,1.773,0.487,1.773,3.628v10.913c0,3.157-0.151,3.459-1.795,3.591
		c-0.003,0-1.052,0.097-1.052,0.097c-0.043,0.004-0.083,0.022-0.114,0.05c-0.142,0.132-0.205,0.361-0.167,0.611
		C179.049,194.888,179.152,195.056,179.298,195.127z M179.915,175.334c0.069,0.009,0.073-0.018,0.079,0.009
		C179.972,175.341,179.915,175.334,179.915,175.334z M179.94,174.966c0,0,0.081,0.002,0.084,0.002
		C180.013,174.991,180.008,174.968,179.94,174.966z"/>
	<path class="st0" d="M50.732,169.681c0,0,0-3.989,0-3.99c0.018,0.007,2.896-4.986,2.896-4.986l0.125-0.217h-1.879
		c0,0-1.735,3.024-1.957,3.411c-0.221-0.388-1.949-3.411-1.949-3.411H46.09c0,0,2.974,5.175,3.012,5.241c0,0.076,0,3.952,0,3.952
		L50.732,169.681L50.732,169.681z"/>
	<path class="st0" d="M79.57,174.599c-0.028-0.014-0.065-0.021-0.097-0.02l-3.074,0.089l-3.301-0.089
		c-0.032-0.001-0.07,0.005-0.099,0.019c-0.164,0.083-0.278,0.268-0.304,0.497c-0.003,0.031-0.005,0.062-0.005,0.094
		c0,0.199,0.074,0.375,0.207,0.485c0.029,0.024,0.065,0.039,0.103,0.044l0.576,0.059c1.045,0.11,1.259,0.332,1.259,0.384
		c0,0.184-0.028,0.499-0.273,1.114l-2.957,6.777c-1.207,2.78-2.163,4.89-2.869,6.347c-1.514-3.311-2.922-6.651-4.345-10.066
		c-0.968-2.254-1.518-3.903-1.584-4.212c0.025-0.101,0.459-0.235,1.331-0.344l0.479-0.059c0.037-0.005,0.071-0.019,0.099-0.042
		c0.133-0.11,0.208-0.287,0.208-0.487c0-0.029-0.002-0.06-0.006-0.091c-0.025-0.229-0.138-0.415-0.303-0.499
		c-0.028-0.014-0.063-0.021-0.094-0.02l-3.844,0.089l-3.297-0.089c-0.035-0.001-0.077,0.006-0.107,0.024
		c-0.174,0.099-0.289,0.29-0.309,0.512c-0.019,0.223,0.06,0.432,0.215,0.559c0.029,0.024,0.065,0.039,0.103,0.044l0.575,0.059
		c1.268,0.14,1.696,0.686,2.42,2.37l5.599,13.154c0.582,1.283,1.112,2.74,1.457,4c0.019,0.07,0.039,0.112,0.111,0.126l0.553,0.111
		l0.462-0.131c0.061-0.018,0.05-0.035,0.071-0.096c0.545-1.616,2.074-5.192,3.302-7.889l1.72-3.724
		c1.501-3.24,2.696-5.579,3.552-6.952c0.413-0.635,0.85-0.916,1.505-0.968c-0.003,0,0.953-0.059,0.953-0.059
		c0.046-0.003,0.089-0.022,0.122-0.053c0.153-0.148,0.191-0.424,0.16-0.632C79.81,174.827,79.714,174.672,79.57,174.599z"/>
	<path class="st0" d="M149.76,194.033c-0.077-0.026-0.873-0.123-0.873-0.123c-0.001,0-0.001,0-0.002,0
		c-1.669-0.19-1.768-0.396-1.768-3.657v-10.788c0-3.194,0.056-3.549,1.761-3.686l0.795-0.059c0.031-0.003,0.061-0.012,0.088-0.029
		c0.145-0.091,0.219-0.284,0.205-0.531c-0.012-0.211-0.094-0.469-0.284-0.561c-0.028-0.013-0.061-0.019-0.091-0.018l-3.944,0.089
		l-3.998-0.089c-0.029-0.001-0.061,0.005-0.088,0.018c-0.192,0.089-0.276,0.344-0.29,0.553c-0.017,0.249,0.054,0.445,0.198,0.538
		c0.028,0.018,0.058,0.028,0.091,0.031l0.801,0.059c1.703,0.137,1.761,0.493,1.761,3.686v10.788c0,3.262-0.099,3.468-1.769,3.657
		c-0.001,0-0.802,0.097-0.802,0.097c-0.042,0.006-0.08,0.023-0.11,0.052c-0.167,0.159-0.192,0.424-0.161,0.62
		c0.034,0.217,0.136,0.38,0.279,0.448c0.028,0.013,0.061,0.019,0.091,0.019l3.998-0.092l3.944,0.092
		c0.031,0.001,0.066-0.006,0.094-0.021c0.195-0.096,0.274-0.373,0.283-0.579C149.978,194.305,149.902,194.118,149.76,194.033z
		 M149.559,175.339c0.008-0.023,0.018-0.001,0.086-0.006C149.645,175.333,149.576,175.338,149.559,175.339z M149.606,174.966
		c-0.067,0.002-0.074,0.023-0.086,0.002C149.524,174.968,149.606,174.966,149.606,174.966z M141.59,175.333
		c0.068,0.005,0.081-0.016,0.087,0.006C141.637,175.337,141.59,175.333,141.59,175.333z M141.637,174.966
		c0,0,0.079,0.002,0.083,0.002C141.708,174.991,141.702,174.968,141.637,174.966z M149.52,194.756
		c0.012-0.019,0.021,0.001,0.086,0.003C149.607,194.759,149.524,194.757,149.52,194.756z M149.557,194.381
		c0.014,0.002,0.079,0.009,0.079,0.009C149.566,194.382,149.563,194.41,149.557,194.381z"/>
	<path class="st0" d="M133.267,197.309c-0.019,0.007-1.95,0.666-4.242,0.397c-2.323-0.261-5.193-1.866-6.877-3.245
		c-1.649-1.344-9.031-8.721-9.105-8.795c-0.126-0.189-0.172-0.321-0.172-0.394c0-0.016,0.006-0.023,0.009-0.034
		c1.045-0.394,4.117-1.83,4.117-5.127c0-2.475-1.525-3.73-2.804-4.348c-1.603-0.799-3.684-0.907-5.507-0.907
		c-2.986,0-5.291,0.074-7.257,0.233c-0.247,0.101-0.365,0.29-0.381,0.522c-0.016,0.242,0.084,0.471,0.256,0.581
		c0.025,0.016,0.054,0.027,0.083,0.03l1.041,0.116c1.139,0.128,1.257,0.437,1.257,3.293v10.696c0,3.178-0.083,3.344-1.778,3.532
		l-0.81,0.086c-0.047,0.006-0.09,0.026-0.122,0.061c-0.17,0.182-0.19,0.453-0.153,0.643c0.038,0.196,0.138,0.345,0.274,0.407
		c0.027,0.014,0.059,0.019,0.089,0.019l4.059-0.087l3.856,0.087c0.029,0.001,0.06-0.005,0.087-0.017
		c0.153-0.068,0.261-0.25,0.291-0.487c0.031-0.252-0.037-0.471-0.182-0.585c-0.028-0.022-0.061-0.035-0.096-0.04l-0.686-0.086
		c-1.697-0.22-1.779-0.384-1.779-3.532v-3.753c0-0.461,0-0.461,1.334-0.461c1.272,0,1.722,0.293,2.15,0.87
		c0.352,0.399,8.423,9.464,14.393,11.517c6.049,2.072,8.749-0.755,8.861-0.876c0.06-0.067,0.067-0.164,0.019-0.237
		C133.443,197.312,133.351,197.281,133.267,197.309z M112.112,184.09c-0.941,0.659-2.221,0.743-3.231,0.743
		c-1.671,0-2.047-0.069-2.122-0.111c-0.025-0.048-0.025-0.446-0.025-0.831v-6.967c0-0.689,0-0.761,1.918-0.761
		c3.691,0,5.002,2.366,5.002,4.392C113.655,182.218,113.165,183.341,112.112,184.09z"/>
	<path class="st0" d="M97.12,190.296c-0.226-0.064-0.458-0.037-0.62,0.069c-0.028,0.018-0.05,0.043-0.065,0.072
		c-0.905,1.731-1.74,2.623-2.181,2.862c0.009-0.005-0.371,0.244-0.371,0.244c-0.142,0.124-0.207,0.181-1.942,0.181
		c-2.668,0-3.361-0.308-3.713-0.64c-0.456-0.459-0.547-1.452-0.547-3.014c0,0,0-5.161,0-5.522c0.366,0,7.03,0,7.03,0
		c0.107,0,0.193-0.087,0.193-0.193v-1.118c0-0.107-0.087-0.193-0.193-0.193c0,0-6.664,0-7.03,0c0-0.363,0-6.032,0-6.032
		c0-1.024,0-1.024,0.76-1.024h2.292c1.578,0,2.462,0.052,3.05,0.18c1.469,0.353,1.764,1.234,2.212,2.566l0.063,0.188
		c0.179,0.234,0.426,0.248,0.56,0.241c0.199-0.008,0.455-0.079,0.573-0.251c0.026-0.038,0.038-0.083,0.034-0.128l-0.032-0.341
		c-0.165-1.775-0.315-3.281-0.484-3.736c-0.034-0.091-0.131-0.143-0.225-0.121c-0.362,0.084-2.341,0.084-4.255,0.084h-5.983
		l-3.74-0.089c-0.03-0.001-0.063,0.005-0.09,0.018c-0.191,0.089-0.273,0.344-0.288,0.552c-0.017,0.25,0.056,0.446,0.2,0.539
		c0.082,0.03,0.592,0.089,0.592,0.089c1.72,0.191,1.769,0.487,1.769,3.628v10.913c0,3.157-0.151,3.459-1.793,3.591
		c-0.002,0-1.051,0.097-1.051,0.097c-0.043,0.004-0.083,0.022-0.115,0.052c-0.167,0.157-0.195,0.422-0.166,0.616
		c0.033,0.218,0.134,0.382,0.277,0.451c0.027,0.014,0.06,0.021,0.091,0.02l4.314-0.092h2.867l6.407,0.083l0.444,0.009
		c0.074,0.001,0.142-0.039,0.176-0.105c0.427-0.836,1.229-3.186,1.453-4.261c0.009-0.041,0.004-0.083-0.014-0.121
		C97.5,190.488,97.333,190.356,97.12,190.296z M82.456,175.334c0.068,0.008,0.075-0.016,0.081,0.009
		C82.515,175.341,82.456,175.334,82.456,175.334z M82.49,174.966c0,0,0.081,0.002,0.084,0.002
		C82.563,174.991,82.557,174.968,82.49,174.966z"/>
	<path class="st0" d="M132.943,183.752l-2.597-1.514c-1.772-1.071-2.672-2.269-2.672-3.558c0-0.955,0.359-3.176,3.678-3.176
		c2.909,0,3.793,1.758,4.237,3.288c0.009,0.029,0.025,0.056,0.046,0.078c0.15,0.161,0.397,0.166,0.531,0.155
		c0.204-0.016,0.462-0.096,0.58-0.272c0.021-0.031,0.033-0.068,0.033-0.107c0-1.25-0.274-2.978-0.599-3.771
		c-0.025-0.063-0.112-0.11-0.179-0.119l-1.092-0.174c-0.86-0.247-2.042-0.404-3.07-0.404c-4.083,0-6.826,2.175-6.826,5.41
		c0,2.752,2.257,4.547,3.604,5.372c0.001,0.001,3.093,1.885,3.093,1.885c2.261,1.35,2.571,2.754,2.571,4.071
		c0,1.638-1.197,3.291-3.871,3.291c-3.325,0-4.779-2.38-5.414-4.376c-0.107-0.169-0.258-0.238-0.451-0.243
		c-0.222-0.005-0.512,0.077-0.662,0.273c-0.028,0.036-0.042,0.08-0.04,0.126c0.062,1.366,0.478,3.604,0.903,4.336
		c0.017,0.031,0.042,0.055,0.074,0.073c0.631,0.344,2.4,1.143,5.168,1.143c4.258,0,7.119-2.328,7.119-5.796
		C137.108,187.325,135.746,185.364,132.943,183.752z"/>
	<path class="st0" d="M54.107,194.033c-0.078-0.027-0.875-0.124-0.875-0.124H53.23c-1.669-0.19-1.768-0.395-1.768-3.657v-10.788
		c0-3.194,0.057-3.549,1.762-3.686l0.797-0.059c0.032-0.003,0.063-0.012,0.09-0.03c0.145-0.092,0.218-0.289,0.201-0.538
		c-0.014-0.209-0.097-0.465-0.29-0.554c-0.027-0.013-0.059-0.019-0.088-0.018l-3.939,0.089l-4.004-0.089
		c-0.03-0.001-0.063,0.006-0.09,0.018c-0.19,0.091-0.272,0.347-0.286,0.556c-0.016,0.249,0.057,0.443,0.199,0.535
		c0.027,0.018,0.059,0.028,0.091,0.031l0.8,0.059c1.704,0.137,1.761,0.492,1.761,3.686v10.788c0,3.262-0.099,3.468-1.768,3.657
		c-0.001,0-0.802,0.097-0.802,0.097c-0.042,0.006-0.08,0.023-0.111,0.052c-0.165,0.157-0.191,0.421-0.161,0.615
		c0.034,0.218,0.133,0.383,0.275,0.452c0.028,0.014,0.062,0.021,0.093,0.02l4.003-0.092l3.938,0.092
		c0.03,0.001,0.063-0.006,0.091-0.019c0.196-0.094,0.278-0.358,0.289-0.572C54.324,194.311,54.249,194.12,54.107,194.033z
		 M53.904,175.339c0.007-0.022,0.018-0.001,0.087-0.006C53.991,175.333,53.921,175.338,53.904,175.339z M53.946,174.966
		c-0.067,0.002-0.072,0.025-0.083,0.002C53.866,174.968,53.946,174.966,53.946,174.966z M45.932,175.333
		c0.069,0.004,0.08-0.015,0.087,0.006C45.98,175.337,45.932,175.333,45.932,175.333z M45.977,174.966c0,0,0.081,0.002,0.084,0.002
		C46.05,174.989,46.042,174.968,45.977,174.966z M53.863,194.757c0.011-0.022,0.019,0,0.084,0.002
		C53.947,194.759,53.866,194.757,53.863,194.757z M53.903,194.38c0.015,0.003,0.08,0.011,0.08,0.011
		C53.912,194.382,53.907,194.409,53.903,194.38z"/>
	<path class="st0" d="M78.628,162.045v-1.557h-4.733v9.193h1.632c0,0,0-3.959,0-4.229c0.262,0,2.992,0,2.992,0v-1.559
		c0,0-2.73,0-2.992,0v-1.847C75.79,162.045,78.628,162.045,78.628,162.045z"/>
	<path class="st0" d="M42,169.681c0,0,0-7.357,0-7.636c0.25,0,2.041,0,2.041,0v-1.557h-5.718v1.557c0,0,1.797,0,2.047,0
		c0,0.279,0,7.636,0,7.636H42z"/>
	<path class="st0" d="M27.198,154.192c0.399,0.769,1.194,1.252,2.06,1.252H147.08c0.866,0,1.661-0.482,2.06-1.252
		c0.12-0.231,1.151-2.331,1.18-5.868h1.617V26.24H94.125c0-1.428,0-2.544,0-2.544c0-0.419-0.113-0.849-0.328-1.209
		c-1.104-1.849-3.682-2.691-5.609-2.691c-1.94,0-4.533,0.846-5.644,2.703c-0.216,0.36-0.33,0.777-0.33,1.197c0,0,0,1.116,0,2.544
		H24.018v122.084h2C26.047,151.861,27.079,153.962,27.198,154.192z M147.08,139.688c1.281,0,2.32,1.039,2.32,2.32
		c0,0.274-0.056,0.534-0.143,0.778c-0.114-0.222-0.207-0.371-0.256-0.443c-0.433-0.638-1.152-1.02-1.921-1.02c0,0-4.855,0-7.152,0
		c-0.063-0.242-0.208-0.805-0.422-1.635L147.08,139.688L147.08,139.688z M130.182,61.227c0,0.261-0.053,0.506-0.131,0.739
		c-0.178-0.291-0.314-0.473-0.361-0.532c-0.439-0.563-1.113-0.892-1.828-0.892c0,0-29.674,0-33.737,0c0-0.757,0-0.866,0-1.623
		c3.172,0,11.071,0,11.071,0c0.032,0,0.064-0.011,0.097-0.013h22.569C129.143,58.907,130.182,59.946,130.182,61.227z
		 M107.516,48.644c0,0.167-0.019,0.329-0.053,0.487c-0.654-0.688-1.299-0.966-1.44-1.019c-0.264-0.101-0.545-0.153-0.828-0.153
		c0,0-7.899,0-11.071,0c0-0.538,0-1.085,0-1.635h11.071C106.477,46.323,107.516,47.362,107.516,48.644z M94.125,28.72h6.068
		c1.281,0,2.32,1.039,2.32,2.32c0,0.167-0.019,0.329-0.053,0.486c-0.654-0.688-1.3-0.965-1.44-1.019
		c-0.264-0.101-0.545-0.153-0.827-0.153c0,0-3.64,0-6.068,0C94.125,29.856,94.125,29.297,94.125,28.72z M76.143,28.72h6.07
		c0,0.576,0,1.136,0,1.635c-2.429,0-6.07,0-6.07,0c-0.283,0-0.563,0.052-0.828,0.153c-0.141,0.054-0.786,0.331-1.44,1.019
		c-0.034-0.157-0.053-0.32-0.053-0.487C73.823,29.759,74.862,28.72,76.143,28.72z M71.142,46.323h11.071c0,0.55,0,1.097,0,1.635
		c-3.172,0-11.071,0-11.071,0c-0.282,0-0.563,0.052-0.827,0.153c-0.141,0.054-0.786,0.331-1.44,1.019
		c-0.034-0.157-0.053-0.319-0.053-0.486C68.822,47.362,69.86,46.323,71.142,46.323z M48.474,58.907h22.571
		c0.032,0.002,0.064,0.013,0.096,0.013c0,0,7.899,0,11.071,0c0,0.757,0,0.866,0,1.623c-4.063,0-33.739,0-33.739,0
		c-0.715,0-1.389,0.329-1.829,0.892c-0.047,0.06-0.182,0.241-0.36,0.533c-0.079-0.234-0.132-0.479-0.132-0.74
		C46.154,59.946,47.193,58.907,48.474,58.907z M55.574,73.117c-1.534,0-7.456,0-7.456,0l-0.232-0.27
		c-0.064-0.074-1.562-1.86-1.562-5.165c0-3.284,1.477-5.214,1.54-5.295l0.233-0.298c0,0,34.182,0,35.662,0v-4.717
		c-1.373,0-12.715,0-12.715,0l-0.094-0.024c-0.084-0.022-2.064-0.563-2.064-3.816c0-3.185,1.899-3.946,1.98-3.977l0.133-0.051
		c0,0,11.387,0,12.76,0v-9.736c-1.275,0-7.713,0-7.713,0l-0.094-0.024c-0.084-0.021-2.063-0.563-2.063-3.815
		c0-3.185,1.897-3.946,1.978-3.977L76,31.901c0,0,6.484,0,7.759,0c0-1.148,0.001-8.426,0.001-8.426l0.11-0.183
		c0.665-1.112,2.521-1.951,4.317-1.951c1.781,0,3.622,0.833,4.281,1.937l0.11,0.183c0,0,0,7.291,0,8.439c1.275,0,7.757,0,7.757,0
		l0.133,0.051c0.081,0.03,1.979,0.791,1.979,3.977c0,3.252-1.98,3.794-2.064,3.815l-0.093,0.024c0,0-6.437,0-7.712,0v9.736
		c1.373,0,12.76,0,12.76,0l0.133,0.051c0.08,0.031,1.978,0.792,1.978,3.976c0,3.252-1.978,3.794-2.063,3.816l-0.094,0.024
		c0,0-11.342,0-12.715,0v4.717c1.481,0,35.66,0,35.66,0l0.233,0.297c0.063,0.081,1.541,2.011,1.541,5.295
		c0,3.305-1.5,5.091-1.564,5.165l-0.231,0.27c0,0-5.922,0-7.456,0c0.48,1.865,17.676,68.627,17.968,69.753c1.042,0,8.76,0,8.76,0
		l0.231,0.34c0.108,0.159,1.056,1.655,1.056,4.965c0,3.319-0.969,5.226-1.01,5.305l-0.216,0.417H28.788l-0.216-0.417
		c-0.042-0.079-1.01-1.986-1.01-5.305c0-3.31,0.948-4.805,1.056-4.965l0.23-0.34c0,0,7.716,0,8.76,0
		C37.897,141.743,55.094,74.981,55.574,73.117z M29.258,139.682h7.573l-0.423,1.642c-2.296,0-7.15,0-7.15,0
		c-0.77,0-1.49,0.382-1.921,1.02c-0.049,0.072-0.142,0.22-0.254,0.441c-0.088-0.245-0.145-0.506-0.145-0.781
		C26.938,140.721,27.977,139.682,29.258,139.682z"/>
	<rect x="34.01" y="160.488" class="st0" width="1.63" height="9.193"/>
	<path class="st0" d="M0,1v218.869h216.949V1H0z M200.842,205.138H15.738V15.831h185.104L200.842,205.138L200.842,205.138z"/>
	<path class="st0" d="M21.337,195.059c0.086,0.017,4.136-0.071,4.136-0.071l3.86,0.087c0.029,0.001,0.061-0.005,0.087-0.017
		c0.153-0.069,0.262-0.254,0.289-0.493c0.029-0.251-0.041-0.468-0.187-0.581c-0.028-0.021-0.059-0.034-0.094-0.039l-0.68-0.086
		c-1.699-0.22-1.783-0.384-1.783-3.532v-3.753c0-0.461,0-0.461,1.334-0.461c1.269,0,1.721,0.293,2.153,0.871
		c0.351,0.397,8.417,9.463,14.397,11.516c6.047,2.072,8.743-0.755,8.855-0.878c0.06-0.066,0.068-0.162,0.019-0.238
		c-0.048-0.074-0.142-0.104-0.225-0.076c-0.019,0.007-1.942,0.666-4.237,0.397c-2.326-0.261-5.197-1.866-6.88-3.245
		c-1.648-1.344-9.033-8.721-9.107-8.795c-0.141-0.213-0.173-0.329-0.173-0.391c0-0.021,0.006-0.026,0.011-0.036
		c1.043-0.394,4.118-1.831,4.118-5.129c0-2.474-1.525-3.73-2.806-4.348c-1.608-0.799-3.689-0.907-5.512-0.907
		c-2.981,0-5.287,0.074-7.255,0.233c-0.244,0.103-0.359,0.29-0.374,0.52c-0.017,0.242,0.082,0.472,0.25,0.583
		c0.025,0.016,0.055,0.028,0.085,0.031l1.038,0.116c1.14,0.128,1.257,0.436,1.257,3.293v10.696c0,3.178-0.083,3.344-1.774,3.532
		l-0.812,0.086c-0.047,0.006-0.09,0.026-0.122,0.061c-0.172,0.186-0.192,0.456-0.152,0.648
		C21.095,194.85,21.198,194.997,21.337,195.059z M26.965,176.924c0-0.689,0-0.761,1.92-0.761c3.693,0,5.005,2.366,5.005,4.392
		c0,1.661-0.491,2.785-1.544,3.536c-0.947,0.658-2.227,0.743-3.236,0.743c-1.671,0-2.047-0.069-2.123-0.111
		c-0.022-0.046-0.022-0.445-0.022-0.831C26.965,183.892,26.965,176.924,26.965,176.924z"/>
	<path class="st0" d="M28.267,169.84c0.866,0,1.705-0.227,2.493-0.675l0.073-0.041v-2.002l-0.851,0.644l-0.549,0.299
		c-0.314,0.148-0.7,0.22-1.15,0.22c-0.868,0-1.613-0.308-2.212-0.919c-0.6-0.607-0.904-1.369-0.904-2.261
		c0-0.901,0.304-1.673,0.905-2.292c0.595-0.625,1.337-0.94,2.207-0.94c0.791,0,1.57,0.316,2.317,0.941l0.238,0.199v-1.984
		l-0.072-0.041c-0.764-0.446-1.568-0.673-2.391-0.673c-1.503,0-2.744,0.567-3.689,1.684c-0.768,0.909-1.158,1.96-1.158,3.125
		c0,1.299,0.465,2.423,1.383,3.341C25.831,169.377,26.961,169.84,28.267,169.84z"/>
	<path class="st0" d="M113.525,73.117c-1.08,0-20.155,0-22.194,0c0.23,0.682,0.39,1.408,0.39,2.184c0,0.864-0.2,1.676-0.487,2.421
		c0.877,0.472,1.066,1.059,1.066,1.414c0,0.153-0.044,0.335-0.127,0.524c0.375,0.269,0.564,0.558,0.647,0.826l1.094,0.057
		c9.509,0,10.355,7.412,11.334,15.995c0.815,7.143,1.738,15.239,7.368,22.098c1.874,2.284,3.468,3.741,4.749,4.911
		c1.757,1.606,3.027,2.767,3.435,4.708l0.297,1.377c0.341,1.559,0.457,2.113,0.462,3.499c0.026,0.117,0.068,0.241,0.068,0.345
		c0,0.343-0.123,0.612-0.252,0.8c-0.553,0.808-1.371,1.996-26.048,2.246c-2.09,1.563-4.978,2.389-7.165,2.389
		c-2.672,0-5.139-0.916-6.983-2.388c-24.841-0.246-25.659-1.438-26.214-2.248c-0.129-0.188-0.252-0.458-0.252-0.8
		c0-0.103,0.042-0.228,0.068-0.345c0.004-1.386,0.122-1.94,0.462-3.499l0.296-1.376c0.408-1.943,1.678-3.104,3.435-4.71
		c1.281-1.17,2.875-2.627,4.749-4.911c5.629-6.859,6.553-14.955,7.367-22.098c0.978-8.583,1.824-15.995,11.333-15.995l1.082-0.056
		c0.083-0.268,0.273-0.558,0.648-0.828c-0.082-0.188-0.126-0.37-0.126-0.523c0-0.355,0.188-0.942,1.065-1.414
		c-0.287-0.746-0.486-1.558-0.486-2.421c0-0.776,0.16-1.503,0.39-2.184c-2.039,0-21.098,0-22.18,0
		c-0.291,1.124-17.618,67.886-18.103,69.753c1.933,0,85.066,0,87.001,0C131.225,141.001,113.817,74.239,113.525,73.117z
		 M47.169,139.682h82.193l0.423,1.641H46.732L47.169,139.682z"/>
</g>
<g id="logo">
	
		<linearGradient id="SVGID_1_" gradientUnits="userSpaceOnUse" x1="346.929" y1="-151.131" x2="346.929" y2="-370" gradientTransform="matrix(1 0 0 -1 -281 -151.131)">
		<stop  offset="0" style="stop-color:#FFFFFF"/>
		<stop  offset="1" style="stop-color:#A1A1A1"/>
	</linearGradient>
	<path class="st1" d="M65.88,168.84c1.333,0,2.486-0.466,3.425-1.383c0.94-0.914,1.417-2.045,1.417-3.358
		c0-1.304-0.474-2.439-1.409-3.371c-0.932-0.931-2.063-1.401-3.362-1.401c-1.318,0-2.46,0.468-3.396,1.391
		c-0.942,0.92-1.419,2.041-1.419,3.329c0,1.463,0.525,2.663,1.558,3.567C63.63,168.427,64.703,168.84,65.88,168.84z M63.69,161.806
		c0.616-0.619,1.349-0.921,2.242-0.921c0.898,0,1.631,0.302,2.238,0.92c0.602,0.61,0.907,1.376,0.907,2.28
		c0,0.891-0.309,1.658-0.919,2.277c-0.621,0.621-1.36,0.923-2.259,0.923c-0.816,0-1.548-0.305-2.176-0.909
		c-0.628-0.601-0.947-1.379-0.947-2.314C62.776,163.17,63.083,162.412,63.69,161.806z"/>
	
		<linearGradient id="SVGID_2_" gradientUnits="userSpaceOnUse" x1="446.1677" y1="-151.131" x2="446.1677" y2="-370" gradientTransform="matrix(1 0 0 -1 -281 -151.131)">
		<stop  offset="0" style="stop-color:#FFFFFF"/>
		<stop  offset="1" style="stop-color:#A1A1A1"/>
	</linearGradient>
	<path class="st2" d="M154.241,194.125c0.028,0.014,0.062,0.021,0.093,0.02l3.967-0.092l1.833,0.093l3.353,0.149
		c1.978,0,4.836-0.257,7.216-1.478c0,0,0-0.001,0.001-0.001c3.608-1.868,5.678-5.221,5.678-9.202c0-4.282-2.465-7.689-6.594-9.115
		c-2.286-0.809-4.746-0.919-7.063-0.919c-2.464,0-5.006,0.074-8.002,0.234c-0.261,0.093-0.391,0.279-0.409,0.51
		c-0.019,0.251,0.099,0.495,0.293,0.609c0.069,0.024,0.771,0.124,0.771,0.124c1.134,0.15,1.333,0.56,1.333,2.744l-0.001,11.518
		c0,3.208-0.081,3.376-1.742,3.592c-0.001,0-0.732,0.097-0.732,0.097c-0.041,0.006-0.077,0.023-0.107,0.051
		c-0.167,0.156-0.195,0.42-0.165,0.614C153.997,193.892,154.098,194.057,154.241,194.125z M159.707,177.434
		c0-0.541,0-1.978,0.234-2.143c0.154-0.11,0.997-0.394,3.036-0.394c9.12,0,9.828,6.719,9.828,8.778c0,5.996-3.106,9.297-8.748,9.297
		c-2.056,0-3.144-0.338-3.754-1.168c-0.505-0.672-0.596-1.6-0.596-3.187V177.434z"/>
	
		<linearGradient id="SVGID_3_" gradientUnits="userSpaceOnUse" x1="468.0309" y1="-151.131" x2="468.0309" y2="-370" gradientTransform="matrix(1 0 0 -1 -281 -151.131)">
		<stop  offset="0" style="stop-color:#FFFFFF"/>
		<stop  offset="1" style="stop-color:#A1A1A1"/>
	</linearGradient>
	<path class="st3" d="M179.298,194.127c0.027,0.013,0.06,0.019,0.091,0.019l4.321-0.092h2.857l6.403,0.083l0.454,0.009
		c0.075,0.001,0.143-0.039,0.177-0.107c0.429-0.851,1.228-3.199,1.451-4.259c0.008-0.041,0.003-0.084-0.015-0.123
		c-0.084-0.173-0.255-0.306-0.473-0.363c-0.221-0.06-0.447-0.033-0.603,0.074c-0.026,0.017-0.047,0.041-0.063,0.069
		c-0.758,1.431-1.616,2.554-2.184,2.862c0.008-0.005-0.37,0.244-0.37,0.244c-0.143,0.124-0.207,0.181-1.941,0.181
		c-2.798,0-3.387-0.331-3.718-0.641c-0.453-0.459-0.543-1.453-0.543-3.014c0,0,0-5.161,0-5.522c0.366,0,7.035,0,7.035,0
		c0.106,0,0.193-0.087,0.193-0.193v-1.118c0-0.107-0.087-0.193-0.193-0.193c0,0-6.669,0-7.035,0c0-0.363,0-6.032,0-6.032
		c0-1.024,0-1.024,0.761-1.024h2.294c1.572,0,2.452,0.052,3.041,0.18c1.481,0.355,1.776,1.244,2.221,2.59l0.054,0.163
		c0.186,0.234,0.431,0.249,0.562,0.242c0.196-0.008,0.452-0.078,0.576-0.246c0.029-0.039,0.042-0.086,0.037-0.134l-0.059-0.612
		c-0.164-1.702-0.303-3.037-0.463-3.464c-0.034-0.091-0.131-0.143-0.226-0.121c-0.359,0.084-2.338,0.084-4.251,0.084h-5.979
		l-3.754-0.089c-0.029-0.001-0.062,0.005-0.089,0.018c-0.191,0.089-0.274,0.341-0.286,0.549c-0.016,0.252,0.061,0.451,0.208,0.544
		c0.081,0.029,0.583,0.087,0.583,0.087c1.722,0.191,1.773,0.487,1.773,3.628v10.913c0,3.157-0.151,3.459-1.795,3.591
		c-0.003,0-1.052,0.097-1.052,0.097c-0.043,0.004-0.083,0.022-0.114,0.05c-0.142,0.132-0.205,0.361-0.167,0.611
		C179.049,193.888,179.152,194.056,179.298,194.127z M179.915,174.334c0.069,0.009,0.073-0.018,0.079,0.009
		C179.972,174.341,179.915,174.334,179.915,174.334z M179.94,173.966c0,0,0.081,0.002,0.084,0.002
		C180.013,173.991,180.008,173.968,179.94,173.966z"/>
	
		<linearGradient id="SVGID_4_" gradientUnits="userSpaceOnUse" x1="330.9215" y1="-151.131" x2="330.9215" y2="-370" gradientTransform="matrix(1 0 0 -1 -281 -151.131)">
		<stop  offset="0" style="stop-color:#FFFFFF"/>
		<stop  offset="1" style="stop-color:#A1A1A1"/>
	</linearGradient>
	<path class="st4" d="M50.732,168.681c0,0,0-3.989,0-3.99c0.018,0.007,2.896-4.986,2.896-4.986l0.125-0.217h-1.879
		c0,0-1.735,3.024-1.957,3.411c-0.221-0.388-1.949-3.411-1.949-3.411H46.09c0,0,2.974,5.175,3.012,5.241c0,0.076,0,3.952,0,3.952
		L50.732,168.681L50.732,168.681z"/>
	
		<linearGradient id="SVGID_5_" gradientUnits="userSpaceOnUse" x1="349.4076" y1="-151.131" x2="349.4076" y2="-370" gradientTransform="matrix(1 0 0 -1 -281 -151.131)">
		<stop  offset="0" style="stop-color:#FFFFFF"/>
		<stop  offset="1" style="stop-color:#A1A1A1"/>
	</linearGradient>
	<path class="st5" d="M79.57,173.599c-0.028-0.014-0.065-0.021-0.097-0.02l-3.074,0.089l-3.301-0.089
		c-0.032-0.001-0.07,0.005-0.099,0.019c-0.164,0.083-0.278,0.268-0.304,0.497c-0.003,0.031-0.005,0.062-0.005,0.094
		c0,0.199,0.074,0.375,0.207,0.485c0.029,0.024,0.065,0.039,0.103,0.044l0.576,0.059c1.045,0.11,1.259,0.332,1.259,0.384
		c0,0.184-0.028,0.499-0.273,1.114l-2.957,6.777c-1.207,2.78-2.163,4.89-2.869,6.347c-1.514-3.311-2.922-6.651-4.345-10.066
		c-0.968-2.254-1.518-3.903-1.584-4.212c0.025-0.101,0.459-0.235,1.331-0.344l0.479-0.059c0.037-0.005,0.071-0.019,0.099-0.042
		c0.133-0.11,0.208-0.287,0.208-0.487c0-0.029-0.002-0.06-0.006-0.091c-0.025-0.229-0.138-0.415-0.303-0.499
		c-0.028-0.014-0.063-0.021-0.094-0.02l-3.844,0.089l-3.297-0.089c-0.035-0.001-0.077,0.006-0.107,0.024
		c-0.174,0.099-0.289,0.29-0.309,0.512c-0.019,0.223,0.06,0.432,0.215,0.559c0.029,0.024,0.065,0.039,0.103,0.044l0.575,0.059
		c1.268,0.14,1.696,0.686,2.42,2.37l5.599,13.154c0.582,1.283,1.112,2.74,1.457,4c0.019,0.07,0.039,0.112,0.111,0.126l0.553,0.111
		l0.462-0.131c0.061-0.018,0.05-0.035,0.071-0.096c0.545-1.616,2.074-5.192,3.302-7.889l1.72-3.724
		c1.501-3.24,2.696-5.579,3.552-6.952c0.413-0.635,0.85-0.916,1.505-0.968c-0.003,0,0.953-0.059,0.953-0.059
		c0.046-0.003,0.089-0.022,0.122-0.053c0.153-0.148,0.191-0.424,0.16-0.632C79.81,173.827,79.714,173.672,79.57,173.599z"/>
	
		<linearGradient id="SVGID_6_" gradientUnits="userSpaceOnUse" x1="426.6191" y1="-151.131" x2="426.6191" y2="-370" gradientTransform="matrix(1 0 0 -1 -281 -151.131)">
		<stop  offset="0" style="stop-color:#FFFFFF"/>
		<stop  offset="1" style="stop-color:#A1A1A1"/>
	</linearGradient>
	<path class="st6" d="M149.76,193.033c-0.077-0.026-0.873-0.123-0.873-0.123c-0.001,0-0.001,0-0.002,0
		c-1.669-0.19-1.768-0.396-1.768-3.657v-10.788c0-3.194,0.056-3.549,1.761-3.686l0.795-0.059c0.031-0.003,0.061-0.012,0.088-0.029
		c0.145-0.091,0.219-0.284,0.205-0.531c-0.012-0.211-0.094-0.469-0.284-0.561c-0.028-0.013-0.061-0.019-0.091-0.018l-3.944,0.089
		l-3.998-0.089c-0.029-0.001-0.061,0.005-0.088,0.018c-0.192,0.089-0.276,0.344-0.29,0.553c-0.017,0.249,0.054,0.445,0.198,0.538
		c0.028,0.018,0.058,0.028,0.091,0.031l0.801,0.059c1.703,0.137,1.761,0.493,1.761,3.686v10.788c0,3.262-0.099,3.468-1.769,3.657
		c-0.001,0-0.802,0.097-0.802,0.097c-0.042,0.006-0.08,0.023-0.11,0.052c-0.167,0.159-0.192,0.424-0.161,0.62
		c0.034,0.217,0.136,0.38,0.279,0.448c0.028,0.013,0.061,0.019,0.091,0.019l3.998-0.092l3.944,0.092
		c0.031,0.001,0.066-0.006,0.094-0.021c0.195-0.096,0.274-0.373,0.283-0.579C149.978,193.305,149.902,193.118,149.76,193.033z
		 M149.559,174.339c0.008-0.023,0.018-0.001,0.086-0.006C149.645,174.333,149.576,174.338,149.559,174.339z M149.606,173.966
		c-0.067,0.002-0.074,0.023-0.086,0.002C149.524,173.968,149.606,173.966,149.606,173.966z M141.59,174.333
		c0.068,0.005,0.081-0.016,0.087,0.006C141.637,174.337,141.59,174.333,141.59,174.333z M141.637,173.966
		c0,0,0.079,0.002,0.083,0.002C141.708,173.991,141.702,173.968,141.637,173.966z M149.52,193.756
		c0.012-0.019,0.021,0.001,0.086,0.003C149.607,193.759,149.524,193.757,149.52,193.756z M149.557,193.381
		c0.014,0.002,0.079,0.009,0.079,0.009C149.566,193.382,149.563,193.41,149.557,193.381z"/>
	
		<linearGradient id="SVGID_7_" gradientUnits="userSpaceOnUse" x1="398.1649" y1="-151.131" x2="398.1649" y2="-370" gradientTransform="matrix(1 0 0 -1 -281 -151.131)">
		<stop  offset="0" style="stop-color:#FFFFFF"/>
		<stop  offset="1" style="stop-color:#A1A1A1"/>
	</linearGradient>
	<path class="st7" d="M133.267,196.309c-0.019,0.007-1.95,0.666-4.242,0.397c-2.323-0.261-5.193-1.866-6.877-3.245
		c-1.649-1.344-9.031-8.721-9.105-8.795c-0.126-0.189-0.172-0.321-0.172-0.394c0-0.016,0.006-0.023,0.009-0.034
		c1.045-0.394,4.117-1.83,4.117-5.127c0-2.475-1.525-3.73-2.804-4.348c-1.603-0.799-3.684-0.907-5.507-0.907
		c-2.986,0-5.291,0.074-7.257,0.233c-0.247,0.101-0.365,0.29-0.381,0.522c-0.016,0.242,0.084,0.471,0.256,0.581
		c0.025,0.016,0.054,0.027,0.083,0.03l1.041,0.116c1.139,0.128,1.257,0.437,1.257,3.293v10.696c0,3.178-0.083,3.344-1.778,3.532
		l-0.81,0.086c-0.047,0.006-0.09,0.026-0.122,0.061c-0.17,0.182-0.19,0.453-0.153,0.643c0.038,0.196,0.138,0.345,0.274,0.407
		c0.027,0.014,0.059,0.019,0.089,0.019l4.059-0.087l3.856,0.087c0.029,0.001,0.06-0.005,0.087-0.017
		c0.153-0.068,0.261-0.25,0.291-0.487c0.031-0.252-0.037-0.471-0.182-0.585c-0.028-0.022-0.061-0.035-0.096-0.04l-0.686-0.086
		c-1.697-0.22-1.779-0.384-1.779-3.532v-3.753c0-0.461,0-0.461,1.334-0.461c1.272,0,1.722,0.293,2.15,0.87
		c0.352,0.399,8.423,9.464,14.393,11.517c6.049,2.072,8.749-0.755,8.861-0.876c0.06-0.067,0.067-0.164,0.019-0.237
		C133.443,196.312,133.351,196.281,133.267,196.309z M112.112,183.09c-0.941,0.659-2.221,0.743-3.231,0.743
		c-1.671,0-2.047-0.069-2.122-0.111c-0.025-0.048-0.025-0.446-0.025-0.831v-6.967c0-0.689,0-0.761,1.918-0.761
		c3.691,0,5.002,2.366,5.002,4.392C113.655,181.218,113.165,182.341,112.112,183.09z"/>
	
		<linearGradient id="SVGID_8_" gradientUnits="userSpaceOnUse" x1="370.5757" y1="-151.131" x2="370.5757" y2="-370" gradientTransform="matrix(1 0 0 -1 -281 -151.131)">
		<stop  offset="0" style="stop-color:#FFFFFF"/>
		<stop  offset="1" style="stop-color:#A1A1A1"/>
	</linearGradient>
	<path class="st8" d="M97.12,189.296c-0.226-0.064-0.458-0.037-0.62,0.069c-0.028,0.018-0.05,0.043-0.065,0.072
		c-0.905,1.731-1.74,2.623-2.181,2.862c0.009-0.005-0.371,0.244-0.371,0.244c-0.142,0.124-0.207,0.181-1.942,0.181
		c-2.668,0-3.361-0.308-3.713-0.64c-0.456-0.459-0.547-1.452-0.547-3.014c0,0,0-5.161,0-5.522c0.366,0,7.03,0,7.03,0
		c0.107,0,0.193-0.087,0.193-0.193v-1.118c0-0.107-0.087-0.193-0.193-0.193c0,0-6.664,0-7.03,0c0-0.363,0-6.032,0-6.032
		c0-1.024,0-1.024,0.76-1.024h2.292c1.578,0,2.462,0.052,3.05,0.18c1.469,0.353,1.764,1.234,2.212,2.566l0.063,0.188
		c0.179,0.234,0.426,0.248,0.56,0.241c0.199-0.008,0.455-0.079,0.573-0.251c0.026-0.038,0.038-0.083,0.034-0.128l-0.032-0.341
		c-0.165-1.775-0.315-3.281-0.484-3.736c-0.034-0.091-0.131-0.143-0.225-0.121c-0.362,0.084-2.341,0.084-4.255,0.084h-5.983
		l-3.74-0.089c-0.03-0.001-0.063,0.005-0.09,0.018c-0.191,0.089-0.273,0.344-0.288,0.552c-0.017,0.25,0.056,0.446,0.2,0.539
		c0.082,0.03,0.592,0.089,0.592,0.089c1.72,0.191,1.769,0.487,1.769,3.628v10.913c0,3.157-0.151,3.459-1.793,3.591
		c-0.002,0-1.051,0.097-1.051,0.097c-0.043,0.004-0.083,0.022-0.115,0.052c-0.167,0.157-0.195,0.422-0.166,0.616
		c0.033,0.218,0.134,0.382,0.277,0.451c0.027,0.014,0.06,0.021,0.091,0.02l4.314-0.092h2.867l6.407,0.083l0.444,0.009
		c0.074,0.001,0.142-0.039,0.176-0.105c0.427-0.836,1.229-3.186,1.453-4.261c0.009-0.041,0.004-0.083-0.014-0.121
		C97.5,189.488,97.333,189.356,97.12,189.296z M82.456,174.334c0.068,0.008,0.075-0.016,0.081,0.009
		C82.515,174.341,82.456,174.334,82.456,174.334z M82.49,173.966c0,0,0.081,0.002,0.084,0.002
		C82.563,173.991,82.557,173.968,82.49,173.966z"/>
	
		<linearGradient id="SVGID_9_" gradientUnits="userSpaceOnUse" x1="411.4749" y1="-151.131" x2="411.4749" y2="-370" gradientTransform="matrix(1 0 0 -1 -281 -151.131)">
		<stop  offset="0" style="stop-color:#FFFFFF"/>
		<stop  offset="1" style="stop-color:#A1A1A1"/>
	</linearGradient>
	<path class="st9" d="M132.943,182.752l-2.597-1.514c-1.772-1.071-2.672-2.269-2.672-3.558c0-0.955,0.359-3.176,3.678-3.176
		c2.909,0,3.793,1.758,4.237,3.288c0.009,0.029,0.025,0.056,0.046,0.078c0.15,0.161,0.397,0.166,0.531,0.155
		c0.204-0.016,0.462-0.096,0.58-0.272c0.021-0.031,0.033-0.068,0.033-0.107c0-1.25-0.274-2.978-0.599-3.771
		c-0.025-0.063-0.112-0.11-0.179-0.119l-1.092-0.174c-0.86-0.247-2.042-0.404-3.07-0.404c-4.083,0-6.826,2.175-6.826,5.41
		c0,2.752,2.257,4.547,3.604,5.372c0.001,0.001,3.093,1.885,3.093,1.885c2.261,1.35,2.571,2.754,2.571,4.071
		c0,1.638-1.197,3.291-3.871,3.291c-3.325,0-4.779-2.38-5.414-4.376c-0.107-0.169-0.258-0.238-0.451-0.243
		c-0.222-0.005-0.512,0.077-0.662,0.273c-0.028,0.036-0.042,0.08-0.04,0.126c0.062,1.366,0.478,3.604,0.903,4.336
		c0.017,0.031,0.042,0.055,0.074,0.073c0.631,0.344,2.4,1.143,5.168,1.143c4.258,0,7.119-2.328,7.119-5.796
		C137.108,186.325,135.746,184.364,132.943,182.752z"/>
	
		<linearGradient id="SVGID_10_" gradientUnits="userSpaceOnUse" x1="330.9636" y1="-151.131" x2="330.9636" y2="-370" gradientTransform="matrix(1 0 0 -1 -281 -151.131)">
		<stop  offset="0" style="stop-color:#FFFFFF"/>
		<stop  offset="1" style="stop-color:#A1A1A1"/>
	</linearGradient>
	<path class="st10" d="M54.107,193.033c-0.078-0.027-0.875-0.124-0.875-0.124H53.23c-1.669-0.19-1.768-0.395-1.768-3.657v-10.788
		c0-3.194,0.057-3.549,1.762-3.686l0.797-0.059c0.032-0.003,0.063-0.012,0.09-0.03c0.145-0.092,0.218-0.289,0.201-0.538
		c-0.014-0.209-0.097-0.465-0.29-0.554c-0.027-0.013-0.059-0.019-0.088-0.018l-3.939,0.089l-4.004-0.089
		c-0.03-0.001-0.063,0.006-0.09,0.018c-0.19,0.091-0.272,0.347-0.286,0.556c-0.016,0.249,0.057,0.443,0.199,0.535
		c0.027,0.018,0.059,0.028,0.091,0.031l0.8,0.059c1.704,0.137,1.761,0.492,1.761,3.686v10.788c0,3.262-0.099,3.468-1.768,3.657
		c-0.001,0-0.802,0.097-0.802,0.097c-0.042,0.006-0.08,0.023-0.111,0.052c-0.165,0.157-0.191,0.421-0.161,0.615
		c0.034,0.218,0.133,0.383,0.275,0.452c0.028,0.014,0.062,0.021,0.093,0.02l4.003-0.092l3.938,0.092
		c0.03,0.001,0.063-0.006,0.091-0.019c0.196-0.094,0.278-0.358,0.289-0.572C54.324,193.311,54.249,193.12,54.107,193.033z
		 M53.904,174.339c0.007-0.022,0.018-0.001,0.087-0.006C53.991,174.333,53.921,174.338,53.904,174.339z M53.946,173.966
		c-0.067,0.002-0.072,0.025-0.083,0.002C53.866,173.968,53.946,173.966,53.946,173.966z M45.932,174.333
		c0.069,0.004,0.08-0.015,0.087,0.006C45.98,174.337,45.932,174.333,45.932,174.333z M45.977,173.966c0,0,0.081,0.002,0.084,0.002
		C46.05,173.989,46.042,173.968,45.977,173.966z M53.863,193.757c0.011-0.022,0.019,0,0.084,0.002
		C53.947,193.759,53.866,193.757,53.863,193.757z M53.903,193.38c0.015,0.003,0.08,0.011,0.08,0.011
		C53.912,193.382,53.907,193.409,53.903,193.38z"/>
	
		<linearGradient id="SVGID_11_" gradientUnits="userSpaceOnUse" x1="357.2615" y1="-151.131" x2="357.2615" y2="-370" gradientTransform="matrix(1 0 0 -1 -281 -151.131)">
		<stop  offset="0" style="stop-color:#FFFFFF"/>
		<stop  offset="1" style="stop-color:#A1A1A1"/>
	</linearGradient>
	<path class="st11" d="M78.628,161.045v-1.557h-4.733v9.193h1.632c0,0,0-3.959,0-4.229c0.262,0,2.992,0,2.992,0v-1.559
		c0,0-2.73,0-2.992,0v-1.847C75.79,161.045,78.628,161.045,78.628,161.045z"/>
	
		<linearGradient id="SVGID_12_" gradientUnits="userSpaceOnUse" x1="322.182" y1="-151.131" x2="322.182" y2="-370" gradientTransform="matrix(1 0 0 -1 -281 -151.131)">
		<stop  offset="0" style="stop-color:#FFFFFF"/>
		<stop  offset="1" style="stop-color:#A1A1A1"/>
	</linearGradient>
	<path class="st12" d="M42,168.681c0,0,0-7.357,0-7.636c0.25,0,2.041,0,2.041,0v-1.557h-5.718v1.557c0,0,1.797,0,2.047,0
		c0,0.279,0,7.636,0,7.636H42z"/>
	
		<linearGradient id="SVGID_13_" gradientUnits="userSpaceOnUse" x1="368.9775" y1="-151.131" x2="368.9775" y2="-370" gradientTransform="matrix(1 0 0 -1 -281 -151.131)">
		<stop  offset="0" style="stop-color:#FFFFFF"/>
		<stop  offset="1" style="stop-color:#A1A1A1"/>
	</linearGradient>
	<path class="st13" d="M27.198,153.192c0.399,0.769,1.194,1.252,2.06,1.252H147.08c0.866,0,1.661-0.482,2.06-1.252
		c0.12-0.231,1.151-2.331,1.18-5.868h1.617V25.24H94.125c0-1.428,0-2.544,0-2.544c0-0.419-0.113-0.849-0.328-1.209
		c-1.104-1.849-3.682-2.691-5.609-2.691c-1.94,0-4.533,0.846-5.644,2.703c-0.216,0.36-0.33,0.777-0.33,1.197c0,0,0,1.116,0,2.544
		H24.018v122.084h2C26.047,150.861,27.079,152.962,27.198,153.192z M147.08,138.688c1.281,0,2.32,1.039,2.32,2.32
		c0,0.274-0.056,0.534-0.143,0.778c-0.114-0.222-0.207-0.371-0.256-0.443c-0.433-0.638-1.152-1.02-1.921-1.02c0,0-4.855,0-7.152,0
		c-0.063-0.242-0.208-0.805-0.422-1.635L147.08,138.688L147.08,138.688z M130.182,60.227c0,0.261-0.053,0.506-0.131,0.739
		c-0.178-0.291-0.314-0.473-0.361-0.532c-0.439-0.563-1.113-0.892-1.828-0.892c0,0-29.674,0-33.737,0c0-0.757,0-0.866,0-1.623
		c3.172,0,11.071,0,11.071,0c0.032,0,0.064-0.011,0.097-0.013h22.569C129.143,57.907,130.182,58.946,130.182,60.227z
		 M107.516,47.644c0,0.167-0.019,0.329-0.053,0.487c-0.654-0.688-1.299-0.966-1.44-1.019c-0.264-0.101-0.545-0.153-0.828-0.153
		c0,0-7.899,0-11.071,0c0-0.538,0-1.085,0-1.635h11.071C106.477,45.323,107.516,46.362,107.516,47.644z M94.125,27.72h6.068
		c1.281,0,2.32,1.039,2.32,2.32c0,0.167-0.019,0.329-0.053,0.486c-0.654-0.688-1.3-0.965-1.44-1.019
		c-0.264-0.101-0.545-0.153-0.827-0.153c0,0-3.64,0-6.068,0C94.125,28.856,94.125,28.297,94.125,27.72z M76.143,27.72h6.07
		c0,0.576,0,1.136,0,1.635c-2.429,0-6.07,0-6.07,0c-0.283,0-0.563,0.052-0.828,0.153c-0.141,0.054-0.786,0.331-1.44,1.019
		c-0.034-0.157-0.053-0.32-0.053-0.487C73.823,28.759,74.862,27.72,76.143,27.72z M71.142,45.323h11.071c0,0.55,0,1.097,0,1.635
		c-3.172,0-11.071,0-11.071,0c-0.282,0-0.563,0.052-0.827,0.153c-0.141,0.054-0.786,0.331-1.44,1.019
		c-0.034-0.157-0.053-0.319-0.053-0.486C68.822,46.362,69.86,45.323,71.142,45.323z M48.474,57.907h22.571
		c0.032,0.002,0.064,0.013,0.096,0.013c0,0,7.899,0,11.071,0c0,0.757,0,0.866,0,1.623c-4.063,0-33.739,0-33.739,0
		c-0.715,0-1.389,0.329-1.829,0.892c-0.047,0.06-0.182,0.241-0.36,0.533c-0.079-0.234-0.132-0.479-0.132-0.74
		C46.154,58.946,47.193,57.907,48.474,57.907z M55.574,72.117c-1.534,0-7.456,0-7.456,0l-0.232-0.27
		c-0.064-0.074-1.562-1.86-1.562-5.165c0-3.284,1.477-5.214,1.54-5.295l0.233-0.298c0,0,34.182,0,35.662,0v-4.717
		c-1.373,0-12.715,0-12.715,0l-0.094-0.024c-0.084-0.022-2.064-0.563-2.064-3.816c0-3.185,1.899-3.946,1.98-3.977l0.133-0.051
		c0,0,11.387,0,12.76,0v-9.736c-1.275,0-7.713,0-7.713,0l-0.094-0.024c-0.084-0.021-2.063-0.563-2.063-3.815
		c0-3.185,1.897-3.946,1.978-3.977L76,30.901c0,0,6.484,0,7.759,0c0-1.148,0.001-8.426,0.001-8.426l0.11-0.183
		c0.665-1.112,2.521-1.951,4.317-1.951c1.781,0,3.622,0.833,4.281,1.937l0.11,0.183c0,0,0,7.291,0,8.439c1.275,0,7.757,0,7.757,0
		l0.133,0.051c0.081,0.03,1.979,0.791,1.979,3.977c0,3.252-1.98,3.794-2.064,3.815l-0.093,0.024c0,0-6.437,0-7.712,0v9.736
		c1.373,0,12.76,0,12.76,0l0.133,0.051c0.08,0.031,1.978,0.792,1.978,3.976c0,3.252-1.978,3.794-2.063,3.816l-0.094,0.024
		c0,0-11.342,0-12.715,0v4.717c1.481,0,35.66,0,35.66,0l0.233,0.297c0.063,0.081,1.541,2.011,1.541,5.295
		c0,3.305-1.5,5.091-1.564,5.165l-0.231,0.27c0,0-5.922,0-7.456,0c0.48,1.865,17.676,68.627,17.968,69.753c1.042,0,8.76,0,8.76,0
		l0.231,0.34c0.108,0.159,1.056,1.655,1.056,4.965c0,3.319-0.969,5.226-1.01,5.305l-0.216,0.417H28.788l-0.216-0.417
		c-0.042-0.079-1.01-1.986-1.01-5.305c0-3.31,0.948-4.805,1.056-4.965l0.23-0.34c0,0,7.716,0,8.76,0
		C37.897,140.743,55.094,73.981,55.574,72.117z M29.258,138.682h7.573l-0.423,1.642c-2.296,0-7.15,0-7.15,0
		c-0.77,0-1.49,0.382-1.921,1.02c-0.049,0.072-0.142,0.22-0.254,0.441c-0.088-0.245-0.145-0.506-0.145-0.781
		C26.938,139.721,27.977,138.682,29.258,138.682z"/>
	
		<linearGradient id="SVGID_14_" gradientUnits="userSpaceOnUse" x1="315.825" y1="-151.131" x2="315.825" y2="-370" gradientTransform="matrix(1 0 0 -1 -281 -151.131)">
		<stop  offset="0" style="stop-color:#FFFFFF"/>
		<stop  offset="1" style="stop-color:#A1A1A1"/>
	</linearGradient>
	<rect x="34.01" y="159.488" class="st14" width="1.63" height="9.193"/>
	
		<linearGradient id="SVGID_15_" gradientUnits="userSpaceOnUse" x1="389.4745" y1="-151.131" x2="389.4745" y2="-370" gradientTransform="matrix(1 0 0 -1 -281 -151.131)">
		<stop  offset="0" style="stop-color:#FFFFFF"/>
		<stop  offset="1" style="stop-color:#A1A1A1"/>
	</linearGradient>
	<path class="st15" d="M0,0v218.869h216.949V0H0z M200.842,204.138H15.738V14.831h185.104L200.842,204.138L200.842,204.138z"/>
	
		<linearGradient id="SVGID_16_" gradientUnits="userSpaceOnUse" x1="318.3953" y1="-151.131" x2="318.3953" y2="-370" gradientTransform="matrix(1 0 0 -1 -281 -151.131)">
		<stop  offset="0" style="stop-color:#FFFFFF"/>
		<stop  offset="1" style="stop-color:#A1A1A1"/>
	</linearGradient>
	<path class="st16" d="M21.337,194.059c0.086,0.017,4.136-0.071,4.136-0.071l3.86,0.087c0.029,0.001,0.061-0.005,0.087-0.017
		c0.153-0.069,0.262-0.254,0.289-0.493c0.029-0.251-0.041-0.468-0.187-0.581c-0.028-0.021-0.059-0.034-0.094-0.039l-0.68-0.086
		c-1.699-0.22-1.783-0.384-1.783-3.532v-3.753c0-0.461,0-0.461,1.334-0.461c1.269,0,1.721,0.293,2.153,0.871
		c0.351,0.397,8.417,9.463,14.397,11.516c6.047,2.072,8.743-0.755,8.855-0.878c0.06-0.066,0.068-0.162,0.019-0.238
		c-0.048-0.074-0.142-0.104-0.225-0.076c-0.019,0.007-1.942,0.666-4.237,0.397c-2.326-0.261-5.197-1.866-6.88-3.245
		c-1.648-1.344-9.033-8.721-9.107-8.795c-0.141-0.213-0.173-0.329-0.173-0.391c0-0.021,0.006-0.026,0.011-0.036
		c1.043-0.394,4.118-1.831,4.118-5.129c0-2.474-1.525-3.73-2.806-4.348c-1.608-0.799-3.689-0.907-5.512-0.907
		c-2.981,0-5.287,0.074-7.255,0.233c-0.244,0.103-0.359,0.29-0.374,0.52c-0.017,0.242,0.082,0.472,0.25,0.583
		c0.025,0.016,0.055,0.028,0.085,0.031l1.038,0.116c1.14,0.128,1.257,0.436,1.257,3.293v10.696c0,3.178-0.083,3.344-1.774,3.532
		l-0.812,0.086c-0.047,0.006-0.09,0.026-0.122,0.061c-0.172,0.186-0.192,0.456-0.152,0.648
		C21.095,193.85,21.198,193.997,21.337,194.059z M26.965,175.924c0-0.689,0-0.761,1.92-0.761c3.693,0,5.005,2.366,5.005,4.392
		c0,1.661-0.491,2.785-1.544,3.536c-0.947,0.658-2.227,0.743-3.236,0.743c-1.671,0-2.047-0.069-2.123-0.111
		c-0.022-0.046-0.022-0.445-0.022-0.831C26.965,182.892,26.965,175.924,26.965,175.924z"/>
	
		<linearGradient id="SVGID_17_" gradientUnits="userSpaceOnUse" x1="308.179" y1="-151.131" x2="308.179" y2="-370" gradientTransform="matrix(1 0 0 -1 -281 -151.131)">
		<stop  offset="0" style="stop-color:#FFFFFF"/>
		<stop  offset="1" style="stop-color:#A1A1A1"/>
	</linearGradient>
	<path class="st17" d="M28.267,168.84c0.866,0,1.705-0.227,2.493-0.675l0.073-0.041v-2.002l-0.851,0.644l-0.549,0.299
		c-0.314,0.148-0.7,0.22-1.15,0.22c-0.868,0-1.613-0.308-2.212-0.919c-0.6-0.607-0.904-1.369-0.904-2.261
		c0-0.901,0.304-1.673,0.905-2.292c0.595-0.625,1.337-0.94,2.207-0.94c0.791,0,1.57,0.316,2.317,0.941l0.238,0.199v-1.984
		l-0.072-0.041c-0.764-0.446-1.568-0.673-2.391-0.673c-1.503,0-2.744,0.567-3.689,1.684c-0.768,0.909-1.158,1.96-1.158,3.125
		c0,1.299,0.465,2.423,1.383,3.341C25.831,168.377,26.961,168.84,28.267,168.84z"/>
	
		<linearGradient id="SVGID_18_" gradientUnits="userSpaceOnUse" x1="369.2135" y1="-151.131" x2="369.2135" y2="-370" gradientTransform="matrix(1 0 0 -1 -281 -151.131)">
		<stop  offset="0" style="stop-color:#FFFFFF"/>
		<stop  offset="1" style="stop-color:#A1A1A1"/>
	</linearGradient>
	<path class="st18" d="M113.525,72.117c-1.08,0-20.155,0-22.194,0c0.23,0.682,0.39,1.408,0.39,2.184c0,0.864-0.2,1.676-0.487,2.421
		c0.877,0.472,1.066,1.059,1.066,1.414c0,0.153-0.044,0.335-0.127,0.524c0.375,0.269,0.564,0.558,0.647,0.826l1.094,0.057
		c9.509,0,10.355,7.412,11.334,15.995c0.815,7.143,1.738,15.239,7.368,22.098c1.874,2.284,3.468,3.741,4.749,4.911
		c1.757,1.606,3.027,2.767,3.435,4.708l0.297,1.377c0.341,1.559,0.457,2.113,0.462,3.499c0.026,0.117,0.068,0.241,0.068,0.345
		c0,0.343-0.123,0.612-0.252,0.8c-0.553,0.808-1.371,1.996-26.048,2.246c-2.09,1.563-4.978,2.389-7.165,2.389
		c-2.672,0-5.139-0.916-6.983-2.388c-24.841-0.246-25.659-1.438-26.214-2.248c-0.129-0.188-0.252-0.458-0.252-0.8
		c0-0.103,0.042-0.228,0.068-0.345c0.004-1.386,0.122-1.94,0.462-3.499l0.296-1.376c0.408-1.943,1.678-3.104,3.435-4.71
		c1.281-1.17,2.875-2.627,4.749-4.911c5.629-6.859,6.553-14.955,7.367-22.098c0.978-8.583,1.824-15.995,11.333-15.995l1.082-0.056
		c0.083-0.268,0.273-0.558,0.648-0.828c-0.082-0.188-0.126-0.37-0.126-0.523c0-0.355,0.188-0.942,1.065-1.414
		c-0.287-0.746-0.486-1.558-0.486-2.421c0-0.776,0.16-1.503,0.39-2.184c-2.039,0-21.098,0-22.18,0
		c-0.291,1.124-17.618,67.886-18.103,69.753c1.933,0,85.066,0,87.001,0C131.225,140.001,113.817,73.239,113.525,72.117z
		 M47.169,138.682h82.193l0.423,1.641H46.732L47.169,138.682z"/>
</g>
</svg>
